<svg width="16" height="16" viewBox="0 0 16 16" fill="none" xmlns="http://www.w3.org/2000/svg">
<path d="M12.6667 2.66732H9.88C9.6 1.89398 8.86667 1.33398 8 1.33398C7.13333 1.33398 6.4 1.89398 6.12 2.66732H3.33333C2.6 2.66732 2 3.26732 2 4.00065V13.334C2 14.0673 2.6 14.6673 3.33333 14.6673H12.6667C13.4 14.6673 14 14.0673 14 13.334V4.00065C14 3.26732 13.4 2.66732 12.6667 2.66732ZM8 2.50065C8.14667 2.50065 8.27333 2.56732 8.36667 2.66732C8.44667 2.75398 8.5 2.87398 8.5 3.00065C8.5 3.27398 8.27333 3.50065 8 3.50065C7.72667 3.50065 7.5 3.27398 7.5 3.00065C7.5 2.87398 7.55333 2.75398 7.63333 2.66732C7.72667 2.56732 7.85333 2.50065 8 2.50065ZM12.6667 13.334H3.33333V4.00065H12.6667V13.334ZM8 4.66732C6.9 4.66732 6 5.56732 6 6.66732C6 7.76732 6.9 8.66732 8 8.66732C9.1 8.66732 10 7.76732 10 6.66732C10 5.56732 9.1 4.66732 8 4.66732ZM8 7.33398C7.63333 7.33398 7.33333 7.03398 7.33333 6.66732C7.33333 6.30065 7.63333 6.00065 8 6.00065C8.36667 6.00065 8.66667 6.30065 8.66667 6.66732C8.66667 7.03398 8.36667 7.33398 8 7.33398ZM4 11.6473V12.6673H12V11.6473C12 9.98065 9.35333 9.26065 8 9.26065C6.64667 9.26065 4 9.97398 4 11.6473ZM5.54 11.334C6 10.9607 7.12667 10.5873 8 10.5873C8.87333 10.5873 10.0067 10.9607 10.46 11.334H5.54Z" fill="white"/>
</svg>
