<svg width="16" height="16" viewBox="0 0 16 16" fill="none" xmlns="http://www.w3.org/2000/svg">
<path d="M12.3333 1.33398H6.33325C5.59992 1.33398 4.99992 1.93398 4.99992 2.66732V10.6673C4.99992 11.4007 5.59992 12.0007 6.33325 12.0007H12.3333C13.0666 12.0007 13.6666 11.4007 13.6666 10.6673V2.66732C13.6666 1.93398 13.0666 1.33398 12.3333 1.33398ZM12.3333 10.6673H6.33325V2.66732H12.3333V10.6673ZM2.33325 10.0007V8.66732H3.66659V10.0007H2.33325ZM2.33325 6.33398H3.66659V7.66732H2.33325V6.33398ZM6.99992 13.334H8.33325V14.6673H6.99992V13.334ZM2.33325 12.334V11.0007H3.66659V12.334H2.33325ZM3.66659 14.6673C2.93325 14.6673 2.33325 14.0673 2.33325 13.334H3.66659V14.6673ZM5.99992 14.6673H4.66659V13.334H5.99992V14.6673ZM9.33325 14.6673V13.334H10.6666C10.6666 14.0673 10.0666 14.6673 9.33325 14.6673ZM3.66659 4.00065V5.33398H2.33325C2.33325 4.60065 2.93325 4.00065 3.66659 4.00065Z" fill="white"/>
</svg>
