<svg width="16" height="16" viewBox="0 0 16 16" fill="none" xmlns="http://www.w3.org/2000/svg">
<path d="M13.3333 3.99935H7.99992L6.66658 2.66602H2.66659C1.93325 2.66602 1.33325 3.26602 1.33325 3.99935V11.9993C1.33325 12.7327 1.93325 13.3327 2.66659 13.3327H13.3333C14.0666 13.3327 14.6666 12.7327 14.6666 11.9993V5.33268C14.6666 4.59935 14.0666 3.99935 13.3333 3.99935ZM13.3333 11.9993H2.66659V3.99935H6.11325L7.44658 5.33268H13.3333V11.9993ZM8.10658 7.99935H5.33325V9.33268H8.10658L7.04658 10.3927L7.99325 11.3327L10.6666 8.67268L7.99325 5.99935L7.05325 6.93935L8.10658 7.99935Z" fill="white"/>
</svg>
