<svg width="16" height="16" viewBox="0 0 16 16" fill="none" xmlns="http://www.w3.org/2000/svg">
<path d="M8.6665 5.33317C8.6665 3.85984 7.47317 2.6665 5.99984 2.6665C4.5265 2.6665 3.33317 3.85984 3.33317 5.33317C3.33317 6.8065 4.5265 7.99984 5.99984 7.99984C7.47317 7.99984 8.6665 6.8065 8.6665 5.33317ZM7.33317 5.33317C7.33317 6.0665 6.73317 6.6665 5.99984 6.6665C5.2665 6.6665 4.6665 6.0665 4.6665 5.33317C4.6665 4.59984 5.2665 3.99984 5.99984 3.99984C6.73317 3.99984 7.33317 4.59984 7.33317 5.33317ZM0.666504 11.9998V13.3332H11.3332V11.9998C11.3332 10.2265 7.77984 9.33317 5.99984 9.33317C4.21984 9.33317 0.666504 10.2265 0.666504 11.9998ZM1.99984 11.9998C2.13317 11.5265 4.19984 10.6665 5.99984 10.6665C7.79317 10.6665 9.85317 11.5198 9.99984 11.9998H1.99984ZM13.3332 9.99984V7.99984H15.3332V6.6665H13.3332V4.6665H11.9998V6.6665H9.99984V7.99984H11.9998V9.99984H13.3332Z" fill="white"/>
</svg>
