<svg width="20" height="20" viewBox="0 0 20 20" fill="none" xmlns="http://www.w3.org/2000/svg">
<path d="M9.99984 6.35898L11.1998 9.19232L12.1998 9.27565L14.2582 9.45065L11.9332 11.4673L12.1582 12.4507L12.6248 14.459L10.8582 13.3923L9.99984 12.859L9.1415 13.3757L7.37484 14.4423L7.8415 12.434L8.0665 11.4507L5.7415 9.43398L7.79984 9.25898L8.79984 9.17565L9.1915 8.25065L9.99984 6.35898ZM9.99984 2.08398L7.65817 7.60898L1.6665 8.11732L6.2165 12.059L4.84984 17.9173L9.99984 14.809L15.1498 17.9173L13.7832 12.059L18.3332 8.11732L12.3415 7.60898L9.99984 2.08398Z" fill="white"/>
</svg>
